<svg width="4352" height="4352" viewBox="0 0 4352 4352" fill="none" xmlns="http://www.w3.org/2000/svg">
    <rect width="4352" height="4352" rx="604" fill="black" />
    <path d="M2740.75 2081.88C2740.75 2231.66 2681.25 2375.3 2575.33 2481.21C2469.43 2587.13 2325.78 2646.62 2176 2646.62" stroke="white" stroke-width="200" stroke-linecap="round" stroke-linejoin="round" />
    <path d="M1423 3017.89C1635.75 3208.71 1913.13 3311.46 2198.85 3305.27C2804.54 3293.3 3296.96 2797.83 3305.39 2192.09C3307.52 2042.42 3279.88 1893.82 3224.08 1754.93C3168.28 1616.04 3085.43 1489.62 2980.35 1383.03C2875.26 1276.44 2750.04 1191.8 2611.95 1134.02C2473.87 1076.25 2325.68 1046.5 2176 1046.5H2081.88V1423L858.25 2176L1020.46 2400.91C1051.4 2443.74 1093.72 2477.04 1142.62 2497.04C1191.52 2517.03 1245.05 2522.93 1297.13 2514.04C1502.64 2479.25 1862.59 2458.58 2176 2646.62L1761.45 3227" stroke="white" stroke-width="200" stroke-linecap="round" stroke-linejoin="round" />
    <path d="M2128.94 1987.75C2206.91 1987.75 2270.12 1924.54 2270.12 1846.56C2270.12 1768.59 2206.91 1705.38 2128.94 1705.38C2050.96 1705.38 1987.75 1768.59 1987.75 1846.56C1987.75 1924.54 2050.96 1987.75 2128.94 1987.75Z" fill="#44EDD9" />
</svg>
